<svg width="79" height="81" viewBox="0 0 79 81" fill="none" xmlns="http://www.w3.org/2000/svg">
<circle cx="39.5" cy="41.5" r="36.5" stroke="#FFD600" stroke-width="6"/>
<mask id="path-2-inside-1_9_2" fill="white">
<path d="M25.34 57V23.512H43.748C47.1453 23.512 49.728 24.3093 51.496 25.904C53.264 27.4987 54.148 29.7867 54.148 32.768C54.148 34.5013 53.8187 35.9573 53.16 37.136C52.536 38.3147 51.704 39.2507 50.664 39.944C52.0853 40.4987 53.212 41.3133 54.044 42.388C54.9107 43.428 55.344 44.988 55.344 47.068C55.344 50.2227 54.3733 52.6667 52.432 54.4C50.4907 56.1333 47.7347 57 44.164 57H25.34ZM34.752 36.876H41.096C43.488 36.876 44.684 35.8013 44.684 33.652C44.684 32.5773 44.3893 31.7627 43.8 31.208C43.2453 30.6533 42.2573 30.376 40.836 30.376H34.752V36.876ZM34.752 50.188H41.512C42.8293 50.188 43.8 49.9107 44.424 49.356C45.048 48.8013 45.36 47.8827 45.36 46.6C45.36 45.5253 45.048 44.7107 44.424 44.156C43.8 43.6013 42.76 43.324 41.304 43.324H34.752V50.188Z"/>
<path d="M23 63.5H56.644V66.1H23V63.5Z"/>
</mask>
<path d="M25.34 57V23.512H43.748C47.1453 23.512 49.728 24.3093 51.496 25.904C53.264 27.4987 54.148 29.7867 54.148 32.768C54.148 34.5013 53.8187 35.9573 53.16 37.136C52.536 38.3147 51.704 39.2507 50.664 39.944C52.0853 40.4987 53.212 41.3133 54.044 42.388C54.9107 43.428 55.344 44.988 55.344 47.068C55.344 50.2227 54.3733 52.6667 52.432 54.4C50.4907 56.1333 47.7347 57 44.164 57H25.34ZM34.752 36.876H41.096C43.488 36.876 44.684 35.8013 44.684 33.652C44.684 32.5773 44.3893 31.7627 43.8 31.208C43.2453 30.6533 42.2573 30.376 40.836 30.376H34.752V36.876ZM34.752 50.188H41.512C42.8293 50.188 43.8 49.9107 44.424 49.356C45.048 48.8013 45.36 47.8827 45.36 46.6C45.36 45.5253 45.048 44.7107 44.424 44.156C43.8 43.6013 42.76 43.324 41.304 43.324H34.752V50.188Z" fill="#FFD600"/>
<path d="M23 63.5H56.644V66.1H23V63.5Z" fill="#FFD600"/>
<path d="M25.34 57H24.34V58H25.34V57ZM25.34 23.512V22.512H24.34V23.512H25.34ZM51.496 25.904L52.1658 25.1614L52.1658 25.1614L51.496 25.904ZM53.16 37.136L52.2871 36.6482L52.2815 36.6581L52.2762 36.6681L53.16 37.136ZM50.664 39.944L50.1093 39.1119L48.5112 40.1773L50.3005 40.8756L50.664 39.944ZM54.044 42.388L53.2533 43.0002L53.2643 43.0144L53.2758 43.0282L54.044 42.388ZM34.752 36.876H33.752V37.876H34.752V36.876ZM43.8 31.208L43.0929 31.9151L43.1036 31.9258L43.1146 31.9362L43.8 31.208ZM34.752 30.376V29.376H33.752V30.376H34.752ZM34.752 50.188H33.752V51.188H34.752V50.188ZM44.424 49.356L45.0884 50.1034L45.0884 50.1034L44.424 49.356ZM44.424 44.156L45.0884 43.4086L45.0884 43.4086L44.424 44.156ZM34.752 43.324V42.324H33.752V43.324H34.752ZM26.34 57V23.512H24.34V57H26.34ZM25.34 24.512H43.748V22.512H25.34V24.512ZM43.748 24.512C47.0027 24.512 49.3072 25.2765 50.8262 26.6466L52.1658 25.1614C50.1488 23.3422 47.2879 22.512 43.748 22.512V24.512ZM50.8262 26.6466C52.3331 28.0057 53.148 29.9931 53.148 32.768H55.148C55.148 29.5802 54.1949 26.9916 52.1658 25.1614L50.8262 26.6466ZM53.148 32.768C53.148 34.3779 52.842 35.6551 52.2871 36.6482L54.0329 37.6238C54.7953 36.2596 55.148 34.6248 55.148 32.768H53.148ZM52.2762 36.6681C51.7246 37.7101 51.0018 38.5169 50.1093 39.1119L51.2187 40.776C52.4062 39.9844 53.3474 38.9193 54.0438 37.6039L52.2762 36.6681ZM50.3005 40.8756C51.5743 41.3727 52.5453 42.0857 53.2533 43.0002L54.8347 41.7758C53.8787 40.541 52.5964 39.6246 51.0275 39.0124L50.3005 40.8756ZM53.2758 43.0282C53.9307 43.8141 54.344 45.1022 54.344 47.068H56.344C56.344 44.8738 55.8906 43.0419 54.8122 41.7478L53.2758 43.0282ZM54.344 47.068C54.344 50.0035 53.4503 52.1502 51.766 53.6541L53.098 55.1459C55.2964 53.1831 56.344 50.4419 56.344 47.068H54.344ZM51.766 53.6541C50.0665 55.1715 47.5809 56 44.164 56V58C47.8884 58 50.9148 57.0952 53.098 55.1459L51.766 53.6541ZM44.164 56H25.34V58H44.164V56ZM34.752 37.876H41.096V35.876H34.752V37.876ZM41.096 37.876C42.4213 37.876 43.602 37.5806 44.4554 36.8138C45.3291 36.0288 45.684 34.9101 45.684 33.652H43.684C43.684 34.5432 43.4409 35.0366 43.1186 35.3262C42.776 35.6341 42.1627 35.876 41.096 35.876V37.876ZM45.684 33.652C45.684 32.396 45.3352 31.2797 44.4854 30.4798L43.1146 31.9362C43.4435 32.2457 43.684 32.7586 43.684 33.652H45.684ZM44.5071 30.5009C43.6611 29.6549 42.3265 29.376 40.836 29.376V31.376C42.1882 31.376 42.8295 31.6517 43.0929 31.9151L44.5071 30.5009ZM40.836 29.376H34.752V31.376H40.836V29.376ZM33.752 30.376V36.876H35.752V30.376H33.752ZM34.752 51.188H41.512V49.188H34.752V51.188ZM41.512 51.188C42.9396 51.188 44.2009 50.8923 45.0884 50.1034L43.7596 48.6086C43.3991 48.9291 42.7191 49.188 41.512 49.188V51.188ZM45.0884 50.1034C46.0182 49.2769 46.36 48.0156 46.36 46.6H44.36C44.36 47.7498 44.0778 48.3258 43.7596 48.6086L45.0884 50.1034ZM46.36 46.6C46.36 45.3271 45.9835 44.2043 45.0884 43.4086L43.7596 44.9034C44.1125 45.2171 44.36 45.7235 44.36 46.6H46.36ZM45.0884 43.4086C44.1868 42.6072 42.8389 42.324 41.304 42.324V44.324C42.6811 44.324 43.4132 44.5955 43.7596 44.9034L45.0884 43.4086ZM41.304 42.324H34.752V44.324H41.304V42.324ZM33.752 43.324V50.188H35.752V43.324H33.752Z" fill="#CCFF00" mask="url(#path-2-inside-1_9_2)"/>
<path d="M23 63.5V62.5H22V63.5H23ZM56.644 63.5H57.644V62.5H56.644V63.5ZM56.644 66.1V67.1H57.644V66.1H56.644ZM23 66.1H22V67.1H23V66.1ZM23 64.5H56.644V62.5H23V64.5ZM55.644 63.5V66.1H57.644V63.5H55.644ZM56.644 65.1H23V67.1H56.644V65.1ZM24 66.1V63.5H22V66.1H24Z" fill="#CCFF00" mask="url(#path-2-inside-1_9_2)"/>
</svg>
